<?xml version="1.0" encoding="UTF-8"?>
<svg width="20px" height="20px" viewBox="0 0 20 20" version="1.1" xmlns="http://www.w3.org/2000/svg"
     xmlns:xlink="http://www.w3.org/1999/xlink">
    <title>Group 4</title>
    <g id="Specta" stroke="none" stroke-width="1" fill="none" fill-rule="evenodd">
        <g id="Nav-Bar-Copy" transform="translate(-311.000000, -14.000000)" stroke="#3D3D3D">
            <g id="Group-4" transform="translate(312.000000, 15.000000)">
                <polygon id="Path-6" stroke-linejoin="round"
                         points="3.43262586 1.36367544 4.95410609 2.96642528 7.19064225 1.95476665 7.19064225 -8.36086176e-18 10.8185912 0 10.8185912 1.95476665 13.0218922 2.96642528 14.5359449 1.36367544 17.112878 3.92345842 15.3151105 5.56797609 15.9357528 7.15058152 18 7.15058152 18 10.7671714 15.9357528 10.7671714 15.3151105 12.3705004 17.112878 14.0824226 14.5359449 16.5252945 13.0218922 15.0632434 10.8185912 16.0108915 10.8185912 18 7.19064225 18 7.19064225 16.0108915 4.95410609 15.0632434 3.43262586 16.5252945 0.864837403 14.0824226 2.61083593 12.3705004 1.95381795 10.7671714 7.7384925e-17 10.7671714 8.43586116e-15 7.15058152 1.95381795 7.15058152 2.61083593 5.56797609 0.864837403 3.92345842"></polygon>
                <circle id="Oval" cx="9" cy="9" r="3.7"></circle>
            </g>
        </g>
    </g>
</svg>